# xmcd
#
# Track frame offsets:
#	150
#	25025
#	43072
#	68779
#	86938
#	110250
#	143445
#	164774
#	183131
#	200126
#	212518
#	229805
#	249802
#	258099
#	275833
#	288778
#	305367
#
# Disc length: 4452 seconds
#
# Revision: 0
# Processed by: cddbd v1.5.2PL0 Copyright (c) Steve Scherf et al.
# Submitted via: EZCDAudioConverter 1.5.4.1
#
DISCID=ed116211
DTITLE=Jean-Jacques Goldman - Entre Gris Clair et Gris Foncé
DYEAR=1900
DGENRE=
TTITLE0=A Quoi tu sers?
TTITLE1=Il Changeait La Vie
TTITLE2=La-Bas
TTITLE3=Entre Gris Clair et Gris Foncé
TTITLE4=C'est Ta Chance
TTITLE5=Puisque Tu-Pars
TTITLE6=Des Bouts De Moi
TTITLE7=Fais Des Bebes
TTITLE8=Filles Faciles
TTITLE9=Je Commence Demain
TTITLE10=Elle A Fait Un Bebe Toute Seule
TTITLE11=Quelque Part, Quelqu'Un
TTITLE12=Qu'elle Soit Elle
TTITLE13=Doux
TTITLE14=Reprendre C'est Voler
TTITLE15=Il Y A
TTITLE16=Peur De Rien
EXTD=
EXTT0=
EXTT1=
EXTT2=
EXTT3=
EXTT4=
EXTT5=
EXTT6=
EXTT7=
EXTT8=
EXTT9=
EXTT10=
EXTT11=
EXTT12=
EXTT13=
EXTT14=
EXTT15=
EXTT16=
PLAYORDER=
